<mxfile host="app.diagrams.net" agent="Mozilla/5.0 (Windows NT 10.0; Win64; x64; rv:132.0) Gecko/20100101 Firefox/132.0" version="24.8.6">
  <diagram name="Page-1" id="74b105a0-9070-1c63-61bc-23e55f88626e">
    <mxGraphModel dx="1728" dy="959" grid="1" gridSize="10" guides="1" tooltips="1" connect="1" arrows="1" fold="1" page="1" pageScale="1.5" pageWidth="1169" pageHeight="826" background="none" math="0" shadow="0">
      <root>
        <mxCell id="0" style=";html=1;" />
        <mxCell id="1" style=";html=1;" parent="0" />
        <mxCell id="1ESmJtTNTT4ztnMP1p0v-25" value="" style="edgeStyle=orthogonalEdgeStyle;rounded=0;orthogonalLoop=1;jettySize=auto;html=1;" edge="1" parent="1" source="1ESmJtTNTT4ztnMP1p0v-8" target="1ESmJtTNTT4ztnMP1p0v-24">
          <mxGeometry relative="1" as="geometry" />
        </mxCell>
        <mxCell id="1ESmJtTNTT4ztnMP1p0v-8" value="" style="rounded=0;whiteSpace=wrap;html=1;fillColor=#BFFA06;align=left;" vertex="1" parent="1">
          <mxGeometry x="490" y="290" width="360" height="80" as="geometry" />
        </mxCell>
        <mxCell id="10b056a9c633e61c-30" value="Title" style="text;strokeColor=none;fillColor=none;html=1;fontSize=24;fontStyle=1;verticalAlign=middle;align=center;" parent="1" vertex="1">
          <mxGeometry x="80" y="40" width="1590" height="40" as="geometry" />
        </mxCell>
        <mxCell id="1ESmJtTNTT4ztnMP1p0v-1" value="Circular buffer&#xa;CANPacketPoolEntry can_packet_pool[TRUCK_CAN]" style="strokeWidth=2;dashed=0;align=center;fontSize=9;verticalLabelPosition=bottom;verticalAlign=top;shape=mxgraph.eip.message_store;fillColor=#c0f5a9;labelBackgroundColor=#CC6600;" vertex="1" parent="1">
          <mxGeometry x="480" y="670" width="150" height="90" as="geometry" />
        </mxCell>
        <mxCell id="1ESmJtTNTT4ztnMP1p0v-5" value="" style="html=1;strokeWidth=2;outlineConnect=0;dashed=0;align=center;fontSize=8;shape=mxgraph.eip.message_translator;fillColor=#c0f5a9;verticalLabelPosition=bottom;verticalAlign=top;" vertex="1" parent="1">
          <mxGeometry x="1267" y="300" width="150" height="90" as="geometry" />
        </mxCell>
        <mxCell id="1ESmJtTNTT4ztnMP1p0v-12" value="" style="sketch=0;outlineConnect=0;fontColor=#232F3E;gradientColor=none;fillColor=#ED7100;strokeColor=none;dashed=0;verticalLabelPosition=bottom;verticalAlign=top;align=center;html=1;fontSize=12;fontStyle=0;aspect=fixed;pointerEvents=1;shape=mxgraph.aws4.braket_tensor_network;" vertex="1" parent="1">
          <mxGeometry x="510" y="314" width="30" height="30" as="geometry" />
        </mxCell>
        <mxCell id="1ESmJtTNTT4ztnMP1p0v-14" value="&lt;div align=&quot;left&quot;&gt;&lt;font style=&quot;font-size: 14px;&quot;&gt;&lt;b&gt;INTERRUPT&lt;br&gt;&lt;/b&gt;&lt;/font&gt;&lt;/div&gt;&lt;div align=&quot;left&quot;&gt;&lt;font style=&quot;font-size: 14px;&quot;&gt;HAL_CAN_RXFifo0MsgPendingCallback()&lt;/font&gt;&lt;br&gt;&lt;/div&gt;" style="text;html=1;align=center;verticalAlign=middle;whiteSpace=wrap;rounded=0;" vertex="1" parent="1">
          <mxGeometry x="540" y="314" width="290" height="30" as="geometry" />
        </mxCell>
        <mxCell id="1ESmJtTNTT4ztnMP1p0v-32" value="" style="edgeStyle=orthogonalEdgeStyle;rounded=0;orthogonalLoop=1;jettySize=auto;html=1;" edge="1" parent="1" source="1ESmJtTNTT4ztnMP1p0v-24" target="1ESmJtTNTT4ztnMP1p0v-31">
          <mxGeometry relative="1" as="geometry" />
        </mxCell>
        <mxCell id="1ESmJtTNTT4ztnMP1p0v-24" value="&lt;span style=&quot;background-color:#2f2f2f;padding:0px 0px 0px 2px;&quot;&gt;&lt;span style=&quot;color:#aaaaaa;background-color:#2f2f2f;font-family:&amp;quot;Consolas&amp;quot;;font-size:14pt;white-space:pre;&quot;&gt;&lt;span style=&quot;color:#e6e6fa;&quot;&gt;&lt;/span&gt;&lt;/span&gt;&lt;font size=&quot;3&quot;&gt;&lt;span style=&quot;color: rgb(170, 170, 170); background-color: rgb(47, 47, 47); font-family: &amp;quot;Consolas&amp;quot;; white-space: pre;&quot;&gt;&lt;span style=&quot;color:#a7ec21;background-color:#1b6291;font-weight:bold;&quot;&gt;get_rx_message_from_CAN_RX_FIFO0()&lt;br/&gt;&lt;span style=&quot;background-color: rgb(0, 0, 0);&quot;&gt;Create &lt;span style=&quot;background-color: rgb(204, 102, 0);&quot;&gt;CAN_Packet&lt;br&gt;&lt;/span&gt;&lt;/span&gt;&lt;/span&gt;&lt;/span&gt;&lt;/font&gt;&lt;/span&gt;" style="html=1;outlineConnect=0;whiteSpace=wrap;fillColor=#EBEBEB;shape=mxgraph.archimate3.application;appType=func;archiType=rounded;" vertex="1" parent="1">
          <mxGeometry x="490" y="400" width="360" height="100" as="geometry" />
        </mxCell>
        <mxCell id="1ESmJtTNTT4ztnMP1p0v-26" value="Circular buffer&#xa;CANPacketPoolEntry can_packet_pool[TRUCK_CAN]" style="strokeWidth=2;dashed=0;align=center;fontSize=9;verticalLabelPosition=bottom;verticalAlign=top;shape=mxgraph.eip.message_store;fillColor=#c0f5a9;labelBackgroundColor=#CC6600;" vertex="1" parent="1">
          <mxGeometry x="720" y="670" width="150" height="90" as="geometry" />
        </mxCell>
        <mxCell id="1ESmJtTNTT4ztnMP1p0v-31" value="Determine CAN BUS" style="rhombus;whiteSpace=wrap;html=1;" vertex="1" parent="1">
          <mxGeometry x="630" y="530" width="80" height="80" as="geometry" />
        </mxCell>
        <mxCell id="1ESmJtTNTT4ztnMP1p0v-37" style="edgeStyle=orthogonalEdgeStyle;rounded=0;orthogonalLoop=1;jettySize=auto;html=1;entryX=0.467;entryY=0;entryDx=0;entryDy=0;entryPerimeter=0;" edge="1" parent="1" source="1ESmJtTNTT4ztnMP1p0v-31" target="1ESmJtTNTT4ztnMP1p0v-1">
          <mxGeometry relative="1" as="geometry" />
        </mxCell>
        <mxCell id="1ESmJtTNTT4ztnMP1p0v-41" value="&lt;font color=&quot;#007fff&quot; style=&quot;font-size: 8px;&quot;&gt;TRUCK_CAN (CAN1)&lt;br&gt;&lt;/font&gt;" style="edgeLabel;html=1;align=center;verticalAlign=middle;resizable=0;points=[];" vertex="1" connectable="0" parent="1ESmJtTNTT4ztnMP1p0v-37">
          <mxGeometry x="-0.0092" y="-2" relative="1" as="geometry">
            <mxPoint as="offset" />
          </mxGeometry>
        </mxCell>
        <mxCell id="1ESmJtTNTT4ztnMP1p0v-42" style="edgeStyle=orthogonalEdgeStyle;rounded=0;orthogonalLoop=1;jettySize=auto;html=1;entryX=0.5;entryY=0;entryDx=0;entryDy=0;entryPerimeter=0;" edge="1" parent="1" source="1ESmJtTNTT4ztnMP1p0v-31" target="1ESmJtTNTT4ztnMP1p0v-26">
          <mxGeometry relative="1" as="geometry">
            <Array as="points">
              <mxPoint x="670" y="640" />
              <mxPoint x="795" y="640" />
            </Array>
          </mxGeometry>
        </mxCell>
        <mxCell id="1ESmJtTNTT4ztnMP1p0v-43" value="&lt;font color=&quot;#007fff&quot; style=&quot;font-size: 8px;&quot;&gt;AUX_CAN (CAN2)&lt;br&gt;&lt;/font&gt;" style="edgeLabel;html=1;align=center;verticalAlign=middle;resizable=0;points=[];" vertex="1" connectable="0" parent="1ESmJtTNTT4ztnMP1p0v-42">
          <mxGeometry x="-0.0155" y="2" relative="1" as="geometry">
            <mxPoint as="offset" />
          </mxGeometry>
        </mxCell>
        <mxCell id="1ESmJtTNTT4ztnMP1p0v-50" value="" style="edgeStyle=orthogonalEdgeStyle;rounded=0;orthogonalLoop=1;jettySize=auto;html=1;" edge="1" parent="1" source="1ESmJtTNTT4ztnMP1p0v-49" target="1ESmJtTNTT4ztnMP1p0v-1">
          <mxGeometry relative="1" as="geometry" />
        </mxCell>
        <mxCell id="1ESmJtTNTT4ztnMP1p0v-49" value="&lt;b&gt;STM32 RTOS Thread&lt;/b&gt;&lt;br&gt;StartCAN1_Rx_Task" style="points=[[0.25,0,0],[0.5,0,0],[0.75,0,0],[1,0.25,0],[1,0.5,0],[1,0.75,0],[0.75,1,0],[0.5,1,0],[0.25,1,0],[0,0.75,0],[0,0.5,0],[0,0.25,0]];shape=mxgraph.bpmn.task;whiteSpace=wrap;rectStyle=rounded;size=10;html=1;container=1;expand=0;collapsible=0;taskMarker=abstract;bpmnShapeType=subprocess;isLoopSub=1;outline=eventNonint;symbol=timer;" vertex="1" parent="1">
          <mxGeometry x="250" y="675" width="170" height="80" as="geometry" />
        </mxCell>
        <mxCell id="1ESmJtTNTT4ztnMP1p0v-52" value="" style="edgeStyle=orthogonalEdgeStyle;rounded=0;orthogonalLoop=1;jettySize=auto;html=1;" edge="1" parent="1" source="1ESmJtTNTT4ztnMP1p0v-51" target="1ESmJtTNTT4ztnMP1p0v-26">
          <mxGeometry relative="1" as="geometry" />
        </mxCell>
        <mxCell id="1ESmJtTNTT4ztnMP1p0v-51" value="&lt;b&gt;STM32 RTOS Thread&lt;/b&gt;&lt;br&gt;StartCAN2_Rx_Task" style="points=[[0.25,0,0],[0.5,0,0],[0.75,0,0],[1,0.25,0],[1,0.5,0],[1,0.75,0],[0.75,1,0],[0.5,1,0],[0.25,1,0],[0,0.75,0],[0,0.5,0],[0,0.25,0]];shape=mxgraph.bpmn.task;whiteSpace=wrap;rectStyle=rounded;size=10;html=1;container=1;expand=0;collapsible=0;taskMarker=abstract;bpmnShapeType=subprocess;isLoopSub=1;outline=eventNonint;symbol=timer;" vertex="1" parent="1">
          <mxGeometry x="940" y="675" width="170" height="80" as="geometry" />
        </mxCell>
      </root>
    </mxGraphModel>
  </diagram>
</mxfile>
